<?xml version="1.0" encoding="UTF-8" standalone="no"?>
<svg
   viewBox="0 0 640 80"
   width="640"
   height="80"
   role="img"
   aria-label="Plant Molecular Biology Reporter"
   version="1.1"
   id="svg2"
   sodipodi:docname="plant-molecular-biology-reporter.svg"
   xml:space="preserve"
   inkscape:version="1.4.3 (0d15f75, 2025-12-25)"
   xmlns:inkscape="http://www.inkscape.org/namespaces/inkscape"
   xmlns:sodipodi="http://sodipodi.sourceforge.net/DTD/sodipodi-0.dtd"
   xmlns="http://www.w3.org/2000/svg"
   xmlns:svg="http://www.w3.org/2000/svg"><defs
     id="defs2" /><sodipodi:namedview
     id="namedview2"
     pagecolor="#ffffff"
     bordercolor="#000000"
     borderopacity="0.25"
     inkscape:showpageshadow="2"
     inkscape:pageopacity="0.0"
     inkscape:pagecheckerboard="0"
     inkscape:deskcolor="#d1d1d1"
     inkscape:zoom="1.1993194"
     inkscape:cx="184.27118"
     inkscape:cy="130.49068"
     inkscape:window-width="2400"
     inkscape:window-height="1411"
     inkscape:window-x="-9"
     inkscape:window-y="-9"
     inkscape:window-maximized="1"
     inkscape:current-layer="svg2" /><rect
     x="0"
     y="0"
     width="640"
     height="80"
     fill="#F1F5F3"
     id="rect1" /><rect
     x="0"
     y="0"
     width="6"
     height="80"
     fill="#0E7C66"
     id="rect2" /><path
     style="fill:#000000"
     d="m 104.41311,35.698337 c -2.2,-0.3523 -3.4375,-0.7044 -2.75,-0.78244 1.75997,-0.1998 1.75997,-16.76947 0,-17.47963 -0.6875,-0.27741 1.71776,-0.53991 5.34501,-0.58333 5.187,-0.0621 6.94835,0.31148 8.25,1.74979 3.70271,4.09144 0.32932,9.79077 -5.30556,8.96374 -2.92409,-0.42916 -3.03945,-0.30401 -3.03945,3.29738 0,2.09002 0.55212,3.94066 1.25,4.1899 2.46324,0.87973 0.17483,1.27309 -3.75,0.64459 z m 8.32677,-12.72939 c 0.39836,-2.81012 -1.4146,-5.19496 -3.94921,-5.19496 -1.52893,0 -1.87756,0.75506 -1.87756,4.06642 0,3.84614 0.14897,4.04928 2.75,3.75 1.99129,-0.22912 2.84015,-0.95237 3.07677,-2.62146 z m 4.9244,12.65387 c 1.72156,-1.72156 1.72055,-17.49182 -0.001,-18.18655 -0.6875,-0.27741 0.7525,-0.53991 3.2,-0.58333 3.46111,-0.0614 4.18334,0.18772 3.25,1.12105 -0.7282,0.72821 -1.2,4.26667 -1.2,9 0,7.78669 0.005,7.8 2.67126,7.8 1.46919,0 3.54007,-0.78626 4.60195,-1.74725 1.8617,-1.68481 1.91812,-1.65801 1.57874,0.75 -0.33511,2.37779 -0.71068,2.51155 -7.85078,2.79608 -5.99533,0.23892 -7.24844,0.0484 -6.25,-0.95 z m 15.24883,0.21019 c 0,-0.51754 0.42973,-1.20657 0.95496,-1.53118 0.52523,-0.32461 2.40257,-4.40117 4.17187,-9.05902 1.76931,-4.65785 3.47707,-8.46719 3.79504,-8.46521 0.31797,0.002 2.06705,3.79381 3.88683,8.42627 3.71878,9.46656 5.35818,11.50644 7.6913,9.57012 2.31476,-1.92108 2.11349,-15.5433 -0.25,-16.9199 -1.43016,-0.83299 -1.11031,-1.02315 1.75,-1.04045 3.13323,-0.019 4.02396,0.65661 8.5,6.44672 2.75,3.55733 5.3375,6.47817 5.75,6.49075 1.52153,0.0464 0.76233,-9.30601 -0.90499,-11.14838 -1.57675,-1.74229 -1.47038,-1.82724 2.25,-1.79694 3.46129,0.0282 3.70615,0.18275 2.15499,1.36025 -1.42912,1.08486 -1.75,2.91259 -1.75,9.96819 -0.35544,8.50406 0.85843,11.5807 -5.51972,3.54828 -2.18915,-2.80032 -5.21059,-6.51282 -6.7143,-8.25 l -2.73403,-3.15852 -0.016,6.88976 c -0.0125,5.40168 0.36199,7.17668 1.73402,8.21819 2.34518,1.78024 -14.29049,2.67036 -13.29471,-0.46707 0.9758,-3.07446 -0.429,-5.14088 -3.49489,-5.14088 -3.23839,0 -4.90209,3.1604 -2.92057,5.54799 2.08176,2.50835 -5.03983,1.43437 -5.03983,0.51103 z m 9,-10 c 0,-1.06754 -0.45,-2.2191 -1,-2.55902 -0.55,-0.33992 -1,-0.17828 -1,0.3592 0,0.53747 -0.27314,1.68903 -0.60699,2.55901 -0.39831,1.03799 -0.0545,1.58179 1,1.58179 0.92404,0 1.60699,-0.8249 1.60699,-1.94098 z m 38.25,9.54893 c 1.39594,-1.05967 1.75,-2.86216 1.75,-8.90918 0,-4.41388 -0.45746,-7.86346 -1.09507,-8.25752 -0.60228,-0.37224 -2.40228,0.28968 -4,1.47092 -2.96276,2.19046 -3.31373,1.98093 -2.04993,-1.22383 0.60484,-1.53376 2.0515,-1.84056 9.43067,-2 8.42845,-0.18212 8.7162,-0.11405 8.71528,2.06166 -0.001,2.65194 -0.58907,2.80474 -2.69375,0.70005 -0.85248,-0.85247 -2.28283,-1.40948 -3.17858,-1.23779 -2.50855,0.48081 -2.96084,14.21066 -0.55568,16.86834 3.01749,3.33428 -8.73625,2.35932 -6.32294,0.52735 z"
     id="path2"
     sodipodi:nodetypes="sssssssssssssscssssssssccsssssssssssssssscssssssssssssssssssscssss" /><path
     d="m 64.902106,44.525167 v -1.888911 h -2.73636 c 0.32527,-1.498969 0.58588,-2.932301 0.84649,-4.365636 h 0.0656 c 0.58588,0 1.04242,-0.455578 1.04242,-0.976789 0,-0.521213 -0.39091,-0.977757 -0.91212,-1.042425 0.13031,-1.433334 0.19497,-2.932301 0.19497,-4.300002 0.52122,-0.06564 0.97776,-0.456543 0.97776,-1.042424 0,-0.521212 -0.45654,-0.977755 -1.04242,-0.977755 -0.13031,-1.433334 -0.32625,-2.801033 -0.58685,-4.169698 0.39091,-0.06471 0.71715,-0.455578 0.71715,-0.97679 0,-0.521212 -0.39091,-0.977756 -0.97776,-0.977756 -0.0647,0 -0.19497,0 -0.2606,0.06563 -0.39091,-1.368664 -0.91212,-2.671695 -1.56364,-3.844423 0.32624,-0.130303 0.52121,-0.455578 0.52121,-0.846487 0,-0.521212 -0.45558,-0.977755 -1.04242,-0.977755 -0.13031,0 -0.32528,0.06564 -0.45558,0.130303 -0.84745,-1.172728 -1.75957,-2.279821 -2.86667,-3.191942 0.1303,-0.130303 0.19594,-0.326241 0.19594,-0.586847 0,-0.521212 -0.39091,-0.976791 -0.97776,-0.976791 -0.32527,0 -0.58588,0.130304 -0.78181,0.39091 -1.17273,-0.717149 -2.47576,-1.368664 -3.84346,-1.824243 V 11.88473 c 0,-0.521212 -0.39091,-0.977755 -0.97776,-0.977755 -0.45558,0 -0.84648,0.32624 -0.97679,0.717149 -0.71715,-0.130303 -1.498966,-0.260606 -2.345455,-0.32624 -0.521211,-1.8889117 -1.629269,-3.5828507 -4.756543,-3.2575757 0,0 0.130303,1.433333 0.06563,2.7363627 C 41.577856,9.9301853 39.883916,9.3433383 38.125307,9.9948533 l 0.651515,4.4303037 -1.824241,2.541393 -1.759575,0.651515 -1.172728,3.518182 -6.580786,8.925276 c 0,0 -0.06467,0.130304 -0.06467,0.326241 0,0.194971 0.194972,0.455578 0.194972,0.455578 l 4.169697,4.821213 1.564603,-1.303031 -0.06564,1.954546 h 4.756544 c 0,-2.345455 2.736364,-6.38485 4.560606,-7.036365 h 3.778788 c -3.257575,4.951516 -9.121213,7.232302 -9.577756,13.356547 h -2.606052 v 1.888915 z m -4.69091,-1.824244 h -21.5 c 0.195937,-2.475757 1.69394,-4.3 3.387879,-5.993939 4.626243,-4.560607 8.339391,-7.491944 8.339391,-14.919218 h -1.888905 c 0,2.215152 -0.456545,4.104064 -1.172729,5.667701 0,0.06563 -4.886847,0.06563 -4.886847,0.06563 l -1.367699,-1.693939 -1.433335,1.237397 0.976791,1.172727 c -1.758609,1.303031 -3.648485,3.974726 -4.234367,6.254546 h -1.368664 v -3.191943 l -0.586846,-0.390909 -2.540427,2.149518 -2.280786,-2.736364 6.059575,-8.339396 0.977755,-2.801033 3.452548,-1.172727 -0.521212,-1.498968 1.108058,-1.628306 -0.456543,-3.192907 c 0.977756,0.456543 1.69394,1.108058 1.69394,2.736364 l 1.759574,0.32624 c 0.521211,-2.345454 0.521211,-4.690909 0.521211,-4.690909 1.563638,0.97679 1.433334,5.407093 1.3677,6.058609 l 1.889877,0.32624 c 0,0 0.06467,-0.651515 0.06467,-1.433333 0,-0.521212 0,-1.042425 -0.06467,-1.69394 12.052551,1.433333 16.482851,13.812124 12.704061,29.382855 z m -19.675757,-21.630306 -0.06467,-1.172728 -3.062603,0.326241 0.195937,2.410124 z m -7.492908,7.232302 -1.171762,-0.06563 c 0,0.781818 -0.261571,1.69394 -0.717149,2.345455 l 1.367699,0.521213 c 0.456543,-0.651515 0.586846,-1.954546 0.521212,-2.801034 z m 1.108058,25.86564 H 64.837446 V 50.388702 H 34.150589 Z"
     id="path2428"
     style="fill:#000000;fill-opacity:1;fill-rule:nonzero;stroke:none;stroke-width:0.772168"
     sodipodi:nodetypes="ccccssccsccssccssccssccssccccccccccsccccccccccccccccccccccccccccccccccccccscsccccccccccscccccc" /><path
     d="m 81.540346,62.887711 c 0,-0.532515 -0.49948,-1.031995 -1.13159,-1.031995 -0.79877,0 -1.63107,0.865337 -2.19663,1.963896 h -0.0335 v -1.996931 c -0.86534,0.332821 -1.79724,0.532515 -2.86276,0.732208 v 0.565551 c 1.06552,0.199693 1.13159,0.199693 1.13159,1.331287 v 3.761133 c 0,1.131594 -0.0991,1.231195 -1.26472,1.331288 v 0.665644 h 4.5604 v -0.665644 c -1.43139,-0.100093 -1.56451,-0.199694 -1.56451,-1.331288 v -3.09549 c 0.36635,-1.031501 0.9319,-1.53098 1.36481,-1.53098 0.26626,0 0.56555,0.100093 0.79877,0.332822 0.36586,0.399386 1.19817,-0.266258 1.19817,-1.031501 z m -7.48923,1.930366 c 0,-1.564509 -1.29825,-2.962361 -2.92883,-2.962361 -1.9639,0 -3.9273,2.03046 -3.9273,4.626471 0,2.13006 1.36432,3.927298 3.72761,3.927298 0.59908,0 1.89683,-0.332822 2.99539,-1.697639 l -0.43291,-0.599079 c -0.66565,0.665643 -1.19816,0.865337 -1.93037,0.865337 -1.29776,0 -2.59601,-0.931901 -2.66257,-3.128525 2.09702,-0.06657 4.39325,-0.232729 4.69303,-0.266258 0.36586,-0.06656 0.46595,-0.266257 0.46595,-0.765244 z m -1.7642,-0.36635 c 0,0.332822 -0.0666,0.432915 -0.43243,0.432915 l -2.86226,0.06656 c 0.1997,-1.43138 0.99846,-2.263188 1.76371,-2.263188 0.89886,0 1.53098,0.865337 1.53098,1.763709 z m -5.69101,-2.163096 -0.13313,-0.199693 c -0.79877,0.0996 -1.66411,0.199693 -2.52944,0.232729 -0.56605,-0.299293 -1.23169,-0.465951 -1.93037,-0.465951 -1.59754,0 -3.52791,1.165123 -3.52791,3.328219 0,1.198158 0.83181,2.263188 1.73067,2.562975 -0.29979,0.365857 -0.99846,0.964936 -1.7642,1.297759 -0.0666,1.065029 0.9319,1.631565 1.49794,1.830766 -1.5645,1.198652 -1.93036,1.764203 -1.93036,2.49641 0,1.131596 1.19816,2.529446 3.46134,2.529446 2.59602,0 4.82567,-1.797237 4.82567,-3.927791 0,-1.863802 -1.56401,-2.429352 -2.72913,-2.429352 h -1.99693 c -0.79878,0 -1.09807,-0.366351 -1.09807,-0.665645 0,-0.299785 0.33282,-0.765736 0.73221,-0.898864 0.23273,0 0.49899,0.03353 0.59908,0.03353 1.66411,0 3.49438,-1.098558 3.49438,-3.128525 0,-0.566043 -0.19969,-1.298252 -0.46595,-1.664109 l 0.96543,0.0996 c 0.29929,-0.166165 0.66564,-0.732208 0.79877,-1.031501 z m -3.09549,2.729139 c 0,1.530982 -0.69868,2.163096 -1.43089,2.163096 -0.99846,0 -1.73067,-0.998465 -1.73067,-2.396317 0,-1.397852 0.79877,-2.13006 1.49745,-2.13006 1.032,0 1.66411,1.06503 1.66411,2.363281 z m 1.36482,7.655396 c 0,1.098066 -0.9319,2.196625 -2.59601,2.196625 -1.49795,0 -2.49641,-0.865337 -2.49641,-1.996933 0,-0.798771 0.63261,-1.864294 2.06349,-1.864294 1.032,0 1.66411,0.03302 2.13006,0.199692 0.49948,0.200188 0.89887,0.765244 0.89887,1.46491 z m -7.75499,-2.463374 v -0.665644 c -0.99847,-0.100093 -1.16464,-0.199694 -1.16464,-1.264723 v -3.860734 c 0,-1.53098 -0.9319,-2.562975 -2.42984,-2.562975 -0.96494,0 -2.22966,0.931902 -2.66258,1.298252 v -1.331287 c -0.86533,0.332821 -1.79723,0.532515 -2.795701,0.732208 v 0.565551 c 0.998471,0.133128 1.065021,0.199693 1.065021,1.331287 v 3.827698 c 0,1.065029 -0.16615,1.16463 -1.29775,1.264723 v 0.665644 h 4.06043 v -0.665644 c -0.93191,-0.100093 -1.032,-0.199694 -1.032,-1.264723 v -4.26012 c 0.49948,-0.46595 1.23169,-0.931901 1.8638,-0.931901 0.99847,0 1.53098,0.732208 1.53098,1.930366 v 3.261655 c 0,1.065029 -0.13313,1.16463 -1.06503,1.264723 v 0.665644 z M 45.894393,58.926884 c 0,-0.665644 -0.499486,-1.16463 -1.165125,-1.16463 -0.632116,0 -1.131598,0.498986 -1.131598,1.16463 0,0.632608 0.499482,1.131595 1.131598,1.131595 0.665639,0 1.165125,-0.498987 1.165125,-1.131595 z m 1.031499,11.282908 v -0.665644 c -1.164629,-0.100093 -1.264724,-0.199694 -1.264724,-1.397852 v -6.323615 c -0.83181,0.299293 -1.863799,0.532515 -2.895308,0.732208 v 0.565551 c 1.098071,0.133128 1.198166,0.133128 1.198166,1.43138 v 3.594476 c 0,1.198158 -0.166657,1.297759 -1.298256,1.397852 v 0.665644 z m -5.125459,-7.322081 c 0,-0.532515 -0.46595,-1.031995 -1.131593,-1.031995 -0.765243,0 -1.597543,0.865337 -2.196624,1.963896 h -0.033 v -1.996931 c -0.865332,0.332821 -1.830769,0.532515 -2.829226,0.732208 v 0.565551 c 1.031989,0.199693 1.131588,0.199693 1.131588,1.331287 v 3.761133 c 0,1.131594 -0.133131,1.231195 -1.264719,1.331288 v 0.665644 h 4.526373 V 69.544148 C 38.572331,69.444055 38.4392,69.344454 38.4392,68.21286 v -3.09549 c 0.365856,-1.031501 0.898373,-1.53098 1.331287,-1.53098 0.332824,0 0.599081,0.06656 0.798774,0.332822 0.432418,0.399386 1.231193,-0.266258 1.231193,-1.031501 z m -7.554807,2.495917 c 0,-1.730674 -1.165125,-3.527912 -3.228619,-3.527912 -0.232729,0 -0.465955,0.03353 -0.698679,0.166658 l -1.797237,0.931901 v -1.264723 c -0.965431,0.332822 -1.897331,0.632115 -2.895799,0.831808 v 0.566044 c 1.131593,0.0996 1.165125,0.133129 1.165125,1.297759 v 8.886589 c 0,1.132088 -0.100094,1.231689 -1.298251,1.364817 v 0.632608 h 4.693031 v -0.632608 c -1.53098,-0.133128 -1.664106,-0.232729 -1.664106,-1.364817 v -3.128524 c 0.266256,0.0996 0.69868,0.199692 1.231192,0.232728 2.496412,-0.299293 4.493343,-2.196624 4.493343,-4.992328 z m -1.797237,0.732208 c 0,2.496411 -1.264724,3.228618 -2.230151,3.228618 -0.732211,0 -1.331297,-0.299785 -1.697147,-0.699171 v -4.925764 c 0.432418,-0.266258 1.131593,-0.632115 1.664106,-0.632115 1.264724,0 2.263192,0.931901 2.263192,3.028432 z m -7.821565,0.732209 c 0,-4.126992 -5.791097,-3.461348 -5.791097,-6.622909 0,-1.031994 0.632607,-1.897331 1.897331,-1.897331 1.697148,0 2.22966,1.43138 2.56248,2.59601 l 0.699175,-0.03302 c -0.03351,-1.397851 -0.100095,-2.196623 -0.166658,-2.895796 -0.931905,-0.332822 -1.863314,-0.565551 -2.729141,-0.565551 -2.596011,0 -4.060424,1.630581 -4.060424,3.427819 0,3.960826 5.691499,3.19509 5.691499,6.623402 0,1.297757 -0.832301,2.163094 -2.230151,2.163094 -1.996935,0 -2.596016,-1.597544 -3.028434,-3.228125 l -0.765738,0.13313 c 0.06656,1.198158 0.133131,2.362787 0.332824,3.228124 0.965427,0.432916 1.963894,0.73221 3.228618,0.73221 2.596011,0 4.359716,-1.697146 4.359716,-3.661041"
     style="fill:#000000;fill-opacity:1;fill-rule:nonzero;stroke:none;stroke-width:0.394456"
     id="path1" /><path
     d="m 209.72867,35.263327 c -1.68472,-0.44553 -1.98981,-0.94877 -1.26531,-2.08709 1.45913,-2.29254 1.24145,-15.72999 -0.26467,-16.33772 -0.6875,-0.27741 0.21101,-0.53991 1.99668,-0.58333 3.03042,-0.0737 3.43936,0.33737 6.13932,6.17105 l 2.89264,6.25 2.7744,-6.25 c 2.55847,-5.76354 3.01463,-6.24386 5.86069,-6.17105 1.69745,0.0434 2.52377,0.30592 1.83627,0.58333 -1.54662,0.62407 -1.78762,17.33772 -0.25,17.33772 0.55,0 1,0.37126 1,0.82503 0,0.45376 -1.57367,0.79126 -3.49705,0.75 -3.67733,-0.0789 -4.16483,-0.51315 -2.4741,-2.20388 0.63429,-0.63429 0.76673,-3.25915 0.34533,-6.84453 l -0.68351,-5.81568 -2.59534,6.54852 c -1.42743,3.60168 -2.97307,6.70422 -3.43476,6.89453 -0.46169,0.1903 -1.96641,-2.35399 -3.34383,-5.65399 -3.61149,-8.65237 -4.31674,-8.86204 -4.31674,-1.28333 0,4.38857 0.42093,6.76699 1.25,7.06309 2.08882,0.74601 0.40595,1.43566 -1.97002,0.80733 z m 27.48259,-0.65248 c -5.92231,-3.21341 -7.10812,-10.88245 -2.37082,-15.33291 7.09573,-6.66609 18.60825,-2.5623 18.60825,6.63316 0,2.60741 -0.8416,4.30674 -3.4,6.86514 -3.81344,3.81344 -8.06948,4.42167 -12.83743,1.83461 z m 10.16485,-2.06947 c 3.16206,-4.0199 2.42828,-12.09228 -1.32712,-14.59983 -1.993,-1.33076 -6.26203,-0.79664 -7.87035,0.98469 -4.37248,4.84284 -1.024,16.25 4.77005,16.25 1.3529,0 3.23668,-1.12108 4.42742,-2.63486 z m 8.9268,-5.44733 c 0.2676,-6.92817 0.023,-9.3808 -1,-10.02907 -0.86053,-0.54529 0.44709,-0.8637 3.58691,-0.87343 4.24159,-0.0131 4.69485,0.16477 3.20159,1.25667 -1.43661,1.05048 -1.68757,2.57426 -1.44113,8.75 0.27814,6.96998 0.45687,7.50046 2.63088,7.80838 1.28285,0.18169 3.19535,-0.45055 4.25,-1.40499 1.83368,-1.65946 1.91753,-1.64111 1.91753,0.41964 0,1.54726 -0.63452,2.17486 -2.25,2.22546 -1.2375,0.0388 -4.275,0.28372 -6.75,0.54438 l -4.5,0.47391 z m 14.14345,7.83219 c 10e-4,-0.4125 0.45233,-0.75 1.00233,-0.75 1.53762,0 1.29662,-16.71365 -0.25,-17.33772 -0.6875,-0.27741 2.0125,-0.53991 6,-0.58333 6.78157,-0.0739 7.25,0.0603 7.25,2.07604 0,2.02437 -0.11084,2.05468 -1.82874,0.5 -1.00581,-0.91025 -2.80581,-1.65499 -4,-1.65499 -1.81477,0 -2.17126,0.57465 -2.17126,3.5 0,3.06667 0.30953,3.5 2.5,3.5 1.375,0 2.5,-0.45 2.5,-1 0,-0.55 0.45,-1 1,-1 0.55,0 1,1.35 1,3 0,1.65 -0.45,3 -1,3 -0.55,0 -1,-0.45 -1,-1 0,-0.55 -1.125,-1 -2.5,-1 -2.25,0 -2.5,0.4 -2.5,4 0,3.66839 0.22146,4 2.67126,4 1.46919,0 3.49419,-0.74474 4.5,-1.65499 1.71586,-1.55283 1.82874,-1.52684 1.82874,0.421 0,1.8876 -0.68079,2.10584 -7.50233,2.40499 -4.12628,0.18095 -7.50128,-0.008 -7.5,-0.421 z m 22.39045,0.26993 c -6.00938,-2.42806 -8.23359,-10.76852 -4.13812,-15.51735 4.09663,-4.75017 15.75,-5.39561 15.75,-0.87234 0,1.55704 -0.13925,1.55371 -1.90646,-0.0456 -1.21606,-1.10052 -3.11727,-1.60932 -5.25,-1.40498 -2.69116,0.25783 -3.68091,1.00984 -5.07262,3.85416 -2.09918,4.29022 -0.95048,10.02657 2.49045,12.43669 3.00905,2.10762 4.43213,1.92689 7.28409,-0.92507 2.23428,-2.23428 2.45454,-2.2823 2.45454,-0.53518 0,3.45683 -6.39979,5.11558 -11.61188,3.00966 z m 17.61188,-0.31048 c -2.28116,-1.15067 -2.52608,-1.91142 -2.79795,-8.69057 -0.16388,-4.08623 -0.78148,-8.01212 -1.37245,-8.7242 -0.852,-1.0266 -0.16912,-1.28838 3.29796,-1.26427 3.45648,0.024 4.00584,0.24393 2.62244,1.04969 -1.88548,1.09819 -2.14403,3.76595 -1.10189,11.36925 0.80699,5.88762 3.74613,7.83281 7.81093,5.16945 2.31652,-1.51784 2.54096,-2.27679 2.54096,-8.59216 0,-5.54243 -0.34984,-7.13103 -1.75,-7.94654 -1.39783,-0.81416 -0.94504,-1.01928 2.25,-1.01928 3.19504,0 3.64783,0.20512 2.25,1.01928 -1.41696,0.82531 -1.75,2.42632 -1.75,8.41289 0,6.50672 -0.26659,7.58033 -2.2225,8.95031 -2.67686,1.87494 -6.38788,1.97596 -9.7775,0.26615 z m 15.99789,0.0405 c 0.001,-0.4125 0.45211,-0.75 1.00211,-0.75 1.53762,0 1.29662,-16.71365 -0.25,-17.33772 -0.6875,-0.27741 0.775,-0.50439 3.25,-0.50439 2.475,0 3.9375,0.22698 3.25,0.50439 -0.86104,0.34744 -1.25,3.12339 -1.25,8.92105 0,7.97129 0.1149,8.41667 2.17126,8.41667 1.19419,0 2.99419,-0.74474 4,-1.65499 1.70502,-1.54302 1.82874,-1.53738 1.82874,0.0833 0,3.94931 2.71327,0.3951 5.91275,-7.74532 1.87701,-4.77566 3.70227,-8.68303 4.05614,-8.68303 0.35386,0 2.24556,3.9375 4.20378,8.75 3.09446,7.60492 3.90502,8.79141 6.19386,9.06642 l 2.63347,0.31642 v -7.86642 c 0,-4.95931 -0.46195,-8.32871 -1.25,-9.11735 -1.00042,-1.00116 0.14355,-1.19084 5.72956,-0.95 6.58006,0.28371 7.0341,0.4566 7.9324,3.02065 0.74612,2.12971 0.57291,3.13952 -0.79844,4.65484 -1.6716,1.8471 -1.65837,2.1172 0.29088,5.93804 1.12317,2.2016 2.61666,4.23389 3.31887,4.51621 0.7022,0.28231 -0.0765,0.54882 -1.73055,0.59224 -2.53669,0.0666 -3.47522,-0.66435 -5.99764,-4.67105 l -2.99037,-4.75 -0.32155,3.89821 c -0.20167,2.44474 0.17031,4.2101 0.99764,4.73469 0.76665,0.48612 -2.33261,0.84289 -7.39941,0.85179 -7.13024,0.0125 -8.61922,-0.24373 -8.173,-1.40655 0.82691,-2.15489 -1.42228,-5.57814 -3.66501,-5.57814 -2.63555,0 -4.96148,4.75275 -2.93796,6.00335 0.84697,0.52346 -2.79672,0.9847 -9.30896,1.17839 -5.88537,0.17504 -10.69973,-0.0192 -10.69857,-0.43174 z m 24.00211,-9.69098 c 0,-1.06754 -0.45,-2.2191 -1,-2.55902 -0.55,-0.33992 -1,-0.17828 -1,0.3592 0,0.53747 -0.27314,1.68903 -0.60699,2.55901 -0.39831,1.03799 -0.0545,1.58179 1,1.58179 0.92404,0 1.60699,-0.8249 1.60699,-1.94098 z m 21.3877,-2.30902 c 1.30984,-2.07992 -0.16014,-5.06462 -2.74488,-5.57332 -1.31162,-0.25814 -1.64282,0.51265 -1.64282,3.82332 0,3.31067 0.3312,4.08146 1.64282,3.82332 0.90355,-0.17782 2.13875,-1.11082 2.74488,-2.07332 z"
     style="fill:#000000"
     id="path1-9"
     sodipodi:nodetypes="ssssscsssssssscsssssssssssssssssssssssssscscssssssssssssssssssscsssssssssssssssssssssssssssssssssssssscssssssssscssssssssssssssssssss" /><path
     d="m 243.0538,65.009136 c 1.43445,-0.83549 1.75,-2.45283 1.75,-8.96959 0,-5.63085 -0.36468,-7.98462 -1.25,-8.06793 -0.6875,-0.0647 0.9869,-0.4916 3.72089,-0.9487 5.8844,-0.98381 9.87029,0.47328 10.3428,3.78094 0.17901,1.2531 -0.52532,2.91427 -1.64048,3.8691 -1.93714,1.65863 -1.93629,1.70476 0.098,5.29475 1.12871,1.99184 2.74043,4.18403 3.58161,4.87153 1.30048,1.06289 1.08604,1.25 -1.43259,1.25 -2.48027,0 -3.36236,-0.73286 -5.42347,-4.50589 -2.72859,-4.99494 -4.32451,-5.31405 -4.83257,-0.9663 -0.22096,1.89095 0.27183,3.31786 1.44113,4.17288 1.5443,1.12921 1.13006,1.29533 -3.16421,1.2689 -3.84344,-0.0237 -4.55236,-0.25684 -3.19113,-1.04969 z m 10.75,-13.4199 c 0,-2.68156 -3.406,-5.27012 -4.53364,-3.44557 -1.17498,1.90116 -1.27878,6.42921 -0.16336,7.12579 1.82862,1.14197 4.697,-1.10548 4.697,-3.68022 z m 8.8,13.3 c 1.60327,-1.60327 1.60327,-15.99673 0,-17.6 -0.93333,-0.93333 0.40698,-1.2 6.03139,-1.2 5.59523,0 7.36536,0.34914 7.82354,1.54313 0.8933,2.32792 -0.0577,2.64808 -3.13057,1.05389 -3.85309,-1.99901 -5.69997,-1.03802 -5.3282,2.77244 0.35069,3.59432 2.72923,4.56229 5.18246,2.10906 1.49517,-1.49517 1.61891,-1.32392 1.58958,2.20005 -0.0282,3.39176 -0.18117,3.62466 -1.36024,2.07143 -0.73065,-0.9625 -2.29133,-1.75 -3.4682,-1.75 -1.81992,0 -2.13976,0.58191 -2.13976,3.89301 0,2.62743 0.51423,4.09034 1.58179,4.5 2.48132,0.95217 3.2778,0.7474 5.41821,-1.39301 l 2,-2 v 2.5 c 0,2.45022 -0.15333,2.5 -7.7,2.5 -5.98889,0 -7.43333,-0.26667 -6.5,-1.2 z m 16,0 c 0.72281,-0.72281 1.2,-4.22222 1.2,-8.8 0,-4.57778 -0.47719,-8.07719 -1.2,-8.8 -0.93333,-0.93333 0.12833,-1.2 4.7775,-1.2 6.29966,0 10.4225,1.84348 10.4225,4.6603 0,1.09212 1.07658,0.60164 3.66198,-1.66837 3.32812,-2.92213 4.12048,-3.1712 8.69116,-2.73202 9.63572,0.92587 12.96157,9.62538 6.24686,16.34009 -2.7873,2.7873 -4.15686,3.4 -7.6,3.4 -3.44314,0 -4.8127,-0.6127 -7.6,-3.4 -2.16969,-2.1697 -3.4,-4.36667 -3.4,-6.07143 0,-2.42857 -0.14286,-2.52857 -1.57143,-1.1 -0.86428,0.86429 -3.11428,1.57143 -5,1.57143 -3.21212,0 -3.42857,0.20833 -3.42857,3.3 0,1.815 0.54,3.84 1.2,4.5 0.93334,0.93333 0.22222,1.2 -3.2,1.2 -3.42222,0 -4.13333,-0.26667 -3.2,-1.2 z m 31.12742,-2.43486 c 4.35606,-5.53783 1.25726,-15.36514 -4.84501,-15.36514 -6.70616,0 -9.27328,10.19788 -3.99368,15.86487 2.71518,2.9144 6.31315,2.71098 8.83869,-0.49973 z m -21.12742,-7.56514 c 1.86695,-1.86695 1.41543,-5.61434 -0.82066,-6.81106 -2.77884,-1.48719 -3.97934,-0.46043 -3.97934,3.40341 0,4.60575 2.10647,6.10119 4.8,3.40765 z m 29,10 c 1.60327,-1.60327 1.60327,-15.99673 0,-17.6 -0.93333,-0.93333 0.0813,-1.2 4.56574,-1.2 3.17116,0 6.63616,0.46583 7.7,1.03518 2.42223,1.29634 2.61926,6.4821 0.29569,7.78243 -1.48111,0.82887 -1.41537,1.3141 0.68415,5.04969 1.27749,2.27298 2.68984,4.1327 3.13856,4.1327 0.44873,0 0.81586,0.45 0.81586,1 0,0.55 -1.09128,1 -2.42507,1 -1.80857,0 -3.01613,-1.06178 -4.75,-4.17654 -1.27871,-2.2971 -2.88743,-4.3596 -3.57493,-4.58333 -1.64771,-0.53623 -1.69041,5.91946 -0.05,7.55987 0.93334,0.93333 0.22222,1.2 -3.2,1.2 -3.42222,0 -4.13333,-0.26667 -3.2,-1.2 z m 10.00056,-12.8856 c 0.31999,-2.75272 -2.01758,-5.51634 -3.75675,-4.44147 -0.5741,0.35481 -1.04381,2.22484 -1.04381,4.15564 0,3.06857 0.28327,3.4703 2.25,3.19098 1.5697,-0.22293 2.34088,-1.10132 2.55056,-2.90515 z m 12.44944,12.69355 c 1.39913,-1.06209 1.75,-2.86647 1.75,-8.99958 0,-8.34379 -1.37594,-10.3881 -4.86598,-7.22965 -2.40912,2.18022 -2.93736,2.04336 -2.42656,-0.62872 0.4078,-2.13328 0.89344,-2.25 9.36133,-2.25 8.59533,0 8.93121,0.0846 8.93121,2.25 0,2.58213 -1.49525,3.00773 -2.38854,0.67986 -0.3614,-0.9418 -1.50471,-1.44202 -2.85699,-1.25 -2.07429,0.29456 -2.27814,0.90916 -2.5507,7.69031 -0.23429,5.82903 0.0595,7.76325 1.40498,9.25 1.64325,1.81577 1.53407,1.87875 -3.20376,1.84803 -4.29324,-0.0278 -4.68673,-0.19749 -3.15499,-1.36025 z m 13.75025,0.14205 c -1.4e-4,-0.4125 0.44975,-0.75 0.99975,-0.75 1.50034,0 1.27295,-15.32685 -0.25,-16.85093 -1.00042,-1.00116 0.14557,-1.19084 5.73966,-0.95 5.90531,0.25425 7.04516,0.5918 7.34738,2.17584 0.33696,1.76611 0.2231,1.78062 -1.96216,0.25 -3.9259,-2.7498 -5.87488,-2.12775 -5.87488,1.87509 0,2.98551 0.3381,3.5 2.3,3.5 1.265,0 2.84,-0.54 3.5,-1.2 0.93334,-0.93333 1.2,-0.48889 1.2,2 0,3.11495 -1.25304,4.21763 -2.5,2.2 -0.33992,-0.55 -1.49147,-1 -2.55902,-1 -1.59781,0 -1.94098,0.70721 -1.94098,4 0,3.66839 0.22146,4 2.67126,4 1.46919,0 3.49419,-0.74474 4.5,-1.65499 1.7179,-1.55468 1.82874,-1.52437 1.82874,0.5 0,2.36361 0.17895,2.3122 -8.74975,2.51385 -3.43737,0.0776 -6.24987,-0.19636 -6.25,-0.60886 z m 15.99975,0.0169 c 0,-0.42181 0.45,-0.76693 1,-0.76693 1.46027,0 1.27786,-15.32214 -0.2,-16.8 -0.93333,-0.93333 0.16191,-1.2 4.92857,-1.2 8.44263,0 11.77477,3.57636 7.61489,8.17298 -1.54512,1.70734 -1.52831,2.07315 0.25,5.43856 1.0486,1.98445 2.46904,3.83182 3.15654,4.10527 2.16518,0.86117 1.35768,2.28319 -1.29651,2.28319 -1.8175,0 -3.03418,-0.89019 -4.25,-3.10951 -0.93692,-1.71024 -2.47602,-4.07274 -3.42022,-5.25 -1.68941,-2.10643 -1.71726,-2.07286 -1.75,2.10951 -0.0183,2.3375 0.41673,4.25 0.96673,4.25 0.55,0 1,0.39232 1,0.87182 0,0.47949 -1.8,0.82461 -4,0.76693 -2.2,-0.0577 -4,-0.45001 -4,-0.87182 z m 9.41821,-10.37392 c 3.07027,-1.17817 1.28962,-7.39301 -2.11821,-7.39301 -0.85,0 -1.3,1.38462 -1.3,4 0,4.01929 0.49799,4.51361 3.41821,3.39301 z"
     style="fill:#000000"
     id="path1-4" /><path
     d="m 101.64526,65.952336 c 1.47786,-1.47786 1.66027,-16.8 0.2,-16.8 -0.55,0 -1,-0.45 -1,-1 0,-1.62691 10.30069,-1.17812 12.7775,0.5567 2.3674,1.6582 2.89368,4.37212 1.18012,6.08568 -0.72318,0.72318 -0.57006,1.43437 0.5,2.32245 2.31535,1.92157 1.93639,6.64579 -0.68012,8.47847 -2.77773,1.94559 -14.899573,2.27878 -12.9775,0.3567 z m 10.14981,-1.23953 c 0.65709,-0.79174 1.04969,-2.70424 0.87245,-4.25 -0.27042,-2.35838 -0.84505,-2.86088 -3.57226,-3.12383 -3.08458,-0.29741 -3.25,-0.14217 -3.25,3.05 0,5.08657 3.31653,7.49675 5.94981,4.32383 z m -0.14167,-12.8325 c 0.22397,-1.85805 -0.25159,-2.73394 -1.74105,-3.20668 -2.83956,-0.90124 -4.06709,0.11621 -4.06709,3.37106 0,3.52606 0.67074,4.16337 3.34814,3.18125 1.28502,-0.47137 2.27599,-1.8191 2.46,-3.34563 z m 7.44186,14.19193 c 1.42846,-0.832 1.75,-2.44331 1.75,-8.76959 0,-4.69469 -0.47311,-8.22342 -1.2,-8.95031 -0.93333,-0.93333 -0.25079,-1.2 3.07143,-1.2 3.64833,0 4.06849,0.20294 2.88025,1.39118 -1.73638,1.73638 -1.5231,14.97439 0.27619,17.1424 1.04153,1.25497 0.51445,1.46204 -3.65542,1.43601 -3.79672,-0.0237 -4.48609,-0.25544 -3.12245,-1.04969 z m 13.52514,-0.4787 c -3.45401,-1.87443 -4.77514,-4.35126 -4.77514,-8.95238 0,-8.45578 10.98333,-12.73951 17.84976,-6.96179 9.71189,8.17202 -1.71397,22.07936 -13.07462,15.91417 z m 9.25664,-0.45821 c 1.04516,-0.55935 2.39003,-2.83574 2.98859,-5.05865 0.90906,-3.37597 0.79113,-4.64962 -0.71603,-7.73299 -1.52696,-3.12388 -2.36622,-3.73819 -5.45932,-3.99605 -4.57716,-0.38158 -6.84502,2.39893 -6.84502,8.39235 0,7.1292 4.83579,11.17615 10.03178,8.39534 z m 9.71822,0.86794 c 1.65018,-1.6514 1.69085,-16.01008 0.05,-17.65093 -0.93333,-0.93333 -0.21111,-1.1966 3.25,-1.18469 2.4475,0.008 3.91384,0.3562 3.25854,0.77284 -1.5993,1.01683 -1.99452,15.92587 -0.46278,17.4576 0.85402,0.85402 1.91627,0.56698 4.22873,-1.1427 l 3.08822,-2.28322 -0.33135,2.34008 c -0.3065,2.16455 -0.85645,2.36266 -7.33136,2.64102 -5.60237,0.24084 -6.75042,0.0512 -5.75,-0.95 z m 16.65,-2.25093 c -6.78345,-6.78345 -2.42483,-16.52706 7.41574,-16.57776 5.34234,-0.0275 7.72823,1.19521 9.67391,4.95774 2.40775,4.65608 1.88991,7.84046 -1.88965,11.62002 -2.7873,2.7873 -4.15686,3.4 -7.6,3.4 -3.44314,0 -4.8127,-0.6127 -7.6,-3.4 z m 10.52859,1.43822 c 4.27138,-2.28597 5.08932,-11.15097 1.40455,-15.2226 -1.66202,-1.83652 -5.91311,-2.39932 -7.93343,-1.05031 -3.50603,2.34104 -4.40478,9.321 -1.70767,13.26218 2.82446,4.12728 4.80057,4.84961 8.23655,3.01073 z m 14.57141,0.8011 c -5.23545,-2.87915 -6.8433,-8.34098 -4.04716,-13.74813 1.83256,-3.54376 6.0253,-5.30908 11.65071,-4.90542 3.45072,0.24761 4.45867,0.73827 4.75405,2.31423 0.35915,1.91625 0.2934,1.92671 -1.57012,0.25 -2.78575,-2.50651 -7.81273,-2.26588 -9.7259,0.46554 -5.09589,7.27541 -0.20003,18.16212 6.93619,15.42369 2.11531,-0.81172 1.93584,-6.2873 -0.24777,-7.55913 -1.35074,-0.78674 -0.60927,-1.00821 3.25,-0.97074 2.75,0.0267 4.4375,0.27551 3.75,0.55292 -0.6875,0.27741 -1.25,2.05302 -1.25,3.9458 0,2.77401 -0.49746,3.63056 -2.5651,4.41667 -3.36182,1.27816 -8.42977,1.19222 -10.9349,-0.18543 z m 20.89696,-0.006 c -0.28325,-0.4583 -0.0384,-0.83327 0.54402,-0.83327 0.58246,0 1.05902,-1.60642 1.05902,-3.56982 0,-3.73846 -4.48301,-11.44574 -7.77252,-13.36269 -1.32582,-0.77261 -0.56492,-1.01018 3.27252,-1.02177 3.19966,-0.01 4.50762,0.29683 3.63254,0.85121 -1.10657,0.70102 -0.92759,1.46126 0.93806,3.98468 1.26803,1.71512 2.65934,3.11839 3.09178,3.11839 0.43244,0 1.51525,-1.40972 2.40624,-3.1327 1.3371,-2.58566 1.38524,-3.28148 0.27568,-3.98469 -0.87241,-0.55291 0.0502,-0.85736 2.62821,-0.8673 3.81402,-0.0147 3.88711,0.0445 1.83202,1.48395 -3.97985,2.78759 -6.53284,8.16219 -6.15196,12.9512 0.33016,4.15123 0.19421,4.41841 -2.44551,4.80584 -1.53731,0.22563 -3.02686,0.0353 -3.3101,-0.42303 z"
     style="fill:#000000"
     id="path1-8" /></svg>
